# xmcd
#
# Track frame offsets:
#	150
#	20348
#	42987
#	58992
#	85592
#	111281
#	143140
#	161537
#	177413
#	193064
#	208017
#	226485
#	257439
#	280764
#	294538
#	307267
#
# Disc length: 4377
#
# Revision: 1
# Processed by: cddbd v1.5.1PL0 Copyright (c) Steve Scherf et al.
# Submitted via: CDex 1.51
# Normalized: r0:TDELIM( - )
#
DISCID=eb111710
DTITLE=Random - The Best Of Blues
DYEAR=1900
DGENRE=Blues
TTITLE0=John Lee Hooker and Jonny Winte - Susie Q
TTITLE1=Ben Harper and J.L.Hooker - The Best Of Friends
TTITLE2=Bill Wyman`s Rhytm Kings - Groovin
TTITLE3=The Son Seals Blues Band - Blues Holy Ghost3
TTITLE4=Luther Allison - It`s A Blue Thing
TTITLE5=B.B.King - Sweet Sixteen
TTITLE6=Shakey Horton - Christine
TTITLE7=The Blues Brother Band - 634-5789
TTITLE8=Buddy Guy - Buddy`s Blues
TTITLE9=Billy Boy Arnold and Tony McPhee - Don`t Stay Out All Night
TTITLE10=Chris Rea - Miss Your Kiss
TTITLE11=Stevie Ray Vaughn - Little Wind
TTITLE12=John Mayall and Walter Trout - Cold Blooded Woman
TTITLE13=Otis Rush - Bad Luck Blues
TTITLE14=J.J.Cale - Cocaine
TTITLE15=Koko Taylor - I`d Rather Go Blind
EXTD=
EXTT0=
EXTT1=
EXTT2=
EXTT3=
EXTT4=
EXTT5=
EXTT6=
EXTT7=
EXTT8=
EXTT9=
EXTT10=
EXTT11=
EXTT12=
EXTT13=
EXTT14=
EXTT15=
PLAYORDER=
